#tb 0: 1/25
0,          0,          0,        1,  6144000, 0x4217e40e
0,          1,          1,        1,  6144000, 0xafa3a676
0,          2,          2,        1,  6144000, 0xb8285522
0,          3,          3,        1,  6144000, 0x07e52fe0
0,          4,          4,        1,  6144000, 0x04838016
0,          5,          5,        1,  6144000, 0xd421bd78
0,          6,          6,        1,  6144000, 0xd49765e1
0,          7,          7,        1,  6144000, 0xd6623f0c
0,          8,          8,        1,  6144000, 0x11348e42
0,          9,          9,        1,  6144000, 0x440a4ba5
0,         10,         10,        1,  6144000, 0x8c5990fd
0,         11,         11,        1,  6144000, 0x2284c72a
0,         12,         12,        1,  6144000, 0x2b16b0c8
0,         13,         13,        1,  6144000, 0xeadbfbfa
0,         14,         14,        1,  6144000, 0xf7bf6e0a
0,         15,         15,        1,  6144000, 0x62fc7321
0,         16,         16,        1,  6144000, 0xee5707b5
0,         17,         17,        1,  6144000, 0xc0cafdc7
0,         18,         18,        1,  6144000, 0x0409333c
0,         19,         19,        1,  6144000, 0x2ef82c00
0,         20,         20,        1,  6144000, 0x01d99315
0,         21,         21,        1,  6144000, 0x2086bdb6
0,         22,         22,        1,  6144000, 0xdadd95b4
0,         23,         23,        1,  6144000, 0x97cf72a2
0,         24,         24,        1,  6144000, 0x1914e283
0,         25,         25,        1,  6144000, 0x0073f731
0,         26,         26,        1,  6144000, 0xdcd7a65b
0,         27,         27,        1,  6144000, 0x43a5a65f
0,         28,         28,        1,  6144000, 0x89c68568
0,         29,         29,        1,  6144000, 0xf07517ad
0,         30,         30,        1,  6144000, 0xa716e9e6
0,         31,         31,        1,  6144000, 0x004267aa
0,         32,         32,        1,  6144000, 0x68ec7399
0,         33,         33,        1,  6144000, 0x558e0339
0,         34,         34,        1,  6144000, 0xf3a57912
0,         35,         35,        1,  6144000, 0x708d11e1
0,         36,         36,        1,  6144000, 0x8c31af81
0,         37,         37,        1,  6144000, 0xfc0ae2d2
0,         38,         38,        1,  6144000, 0xdfdf4726
0,         39,         39,        1,  6144000, 0xe101c925
0,         40,         40,        1,  6144000, 0xb38ced35
0,         41,         41,        1,  6144000, 0x4e8848b6
0,         42,         42,        1,  6144000, 0xb9d526d9
0,         43,         43,        1,  6144000, 0xb20f931c
0,         44,         44,        1,  6144000, 0x4143e9f3
0,         45,         45,        1,  6144000, 0x30fc4669
0,         46,         46,        1,  6144000, 0x9087bd86
0,         47,         47,        1,  6144000, 0x34f28088
0,         48,         48,        1,  6144000, 0x675febc8
0,         49,         49,        1,  6144000, 0x36ccb881
0,         50,         50,        1,  6144000, 0xbc0ea02f
0,         51,         51,        1,  6144000, 0x72619f9e
0,         52,         52,        1,  6144000, 0x7e115352
0,         53,         53,        1,  6144000, 0x7ef1e547
0,         54,         54,        1,  6144000, 0xbac5db79
0,         55,         55,        1,  6144000, 0xe75bf8e7
0,         56,         56,        1,  6144000, 0x53992573
0,         57,         57,        1,  6144000, 0x6b705da6
0,         58,         58,        1,  6144000, 0x494dbecc
0,         59,         59,        1,  6144000, 0xfe001b93
